# xmcd
#
# Track frame offsets:
#	150
#	15200
#	30887
#	44317
#	59761
#	72136
#	86602
#	101745
#	114777
#	129483
#	146694
#	162178
#	176736
#	194010
#	207100
#	223366
#	234614
#	248904
#	263033
#	279678
#	292838
#	305099
#	315981
#	329762
#	342857
#
# Disc length: 4729 seconds
#
# Revision: 0
# Processed by: cddbd v1.5.2PL0 Copyright (c) Steve Scherf et al.
# Submitted via: audiograbber 1.83.01
#
DISCID=75127719
DTITLE=Greta Keller - Remember Me
DYEAR=1900
DGENRE=
TTITLE0=Remember Me
TTITLE1=The Very Thought Of You
TTITLE2=All Of A Sudden My Heart Sings
TTITLE3=Easy Come Easy Go
TTITLE4=That Old Feeling
TTITLE5=Lights Out
TTITLE6=Don't Ask Me Why
TTITLE7=Darling, Je Vous Aime Beaucoup
TTITLE8=They Can't Take That Away From Me
TTITLE9=Auf Wiederseh'n, My Dear
TTITLE10=Deep In A Dream
TTITLE11=The Party's Over Now
TTITLE12=I Get Along Without You Very Well
TTITLE13=Sei Lieb Zu Mir (Be Nice To Me)
TTITLE14=These Foolish Things
TTITLE15=Lazy Afternoon
TTITLE16=C'est Magnifique
TTITLE17=I'm A Stranger Here Myself
TTITLE18=My Ship
TTITLE19=A Touch Of Venue
TTITLE20=Green-Up Time
TTITLE21=This Is New
TTITLE22=Time On My Hands
TTITLE23=Strange Music
TTITLE24=One For My Baby
EXTD=
EXTT0=
EXTT1=
EXTT2=
EXTT3=
EXTT4=
EXTT5=
EXTT6=
EXTT7=
EXTT8=
EXTT9=
EXTT10=
EXTT11=
EXTT12=
EXTT13=
EXTT14=
EXTT15=
EXTT16=
EXTT17=
EXTT18=
EXTT19=
EXTT20=
EXTT21=
EXTT22=
EXTT23=
EXTT24=
PLAYORDER=
